<svg width="23" height="23" viewBox="0 0 23 23" fill="none" xmlns="http://www.w3.org/2000/svg">
<g id="bell">
<path id="Vector" d="M14.3757 16.2917H19.1673L17.8209 14.9452C17.64 14.7644 17.4966 14.5496 17.3988 14.3134C17.3009 14.0771 17.2506 13.8238 17.2507 13.5681V10.5417C17.2508 9.35231 16.8822 8.19216 16.1957 7.22093C15.5092 6.24971 14.5386 5.51517 13.4173 5.11846V4.79167C13.4173 4.28334 13.2154 3.79582 12.8559 3.43638C12.4965 3.07693 12.009 2.875 11.5007 2.875C10.9923 2.875 10.5048 3.07693 10.1454 3.43638C9.78592 3.79582 9.58398 4.28334 9.58398 4.79167V5.11846C7.35107 5.90813 5.75065 8.0385 5.75065 10.5417V13.569C5.75065 14.0846 5.54557 14.5801 5.18044 14.9452L3.83398 16.2917H8.62565M14.3757 16.2917H8.62565M14.3757 16.2917V17.25C14.3757 18.0125 14.0728 18.7438 13.5336 19.2829C12.9944 19.8221 12.2631 20.125 11.5007 20.125C10.7382 20.125 10.0069 19.8221 9.46772 19.2829C8.92855 18.7438 8.62565 18.0125 8.62565 17.25V16.2917" stroke="#18181B" stroke-width="1.5" stroke-linecap="round" stroke-linejoin="round"/>
</g>
</svg>
