<svg width="43" height="43" viewBox="0 0 43 43" fill="none" xmlns="http://www.w3.org/2000/svg">
<g id="heart">
<path id="Vector" d="M5.98873 13.9381C6.39392 12.9599 6.9878 12.0711 7.73649 11.3224C8.48516 10.5737 9.37397 9.97985 10.3522 9.57467C11.3304 9.16948 12.3788 8.96094 13.4376 8.96094C14.4964 8.96094 15.5448 9.16948 16.523 9.57467C17.5012 9.97985 18.39 10.5737 19.1387 11.3224L21.5001 13.6838L23.8615 11.3224C25.3735 9.8104 27.4242 8.96096 29.5626 8.96096C31.7009 8.96096 33.7516 9.8104 35.2636 11.3224C36.7757 12.8344 37.6251 14.8852 37.6251 17.0235C37.6251 19.1618 36.7757 21.2126 35.2636 22.7246L21.5001 36.4882L7.73649 22.7246C6.9878 21.9759 6.39392 21.0871 5.98873 20.1089C5.58355 19.1307 5.375 18.0823 5.375 17.0235C5.375 15.9647 5.58355 14.9163 5.98873 13.9381Z" stroke="#52555B" stroke-width="2.4" stroke-linecap="round" stroke-linejoin="round"/>
</g>
</svg>
