<svg width="32" height="32" viewBox="0 0 32 32" fill="none" xmlns="http://www.w3.org/2000/svg">
<path d="M11.5775 17.7898C11.8468 17.2511 11.9988 16.6431 11.9988 16.0005C11.9988 15.3578 11.8468 14.7498 11.5775 14.2111M11.5775 17.7898C11.1744 18.5957 10.5111 19.2418 9.69493 19.6236C8.87879 20.0054 7.95764 20.1005 7.08073 19.8934C6.20381 19.6863 5.4225 19.1893 4.86335 18.4827C4.30421 17.7762 4 16.9015 4 16.0005C4 15.0994 4.30421 14.2248 4.86335 13.5183C5.4225 12.8117 6.20381 12.3146 7.08073 12.1075C7.95764 11.9005 8.87879 11.9955 9.69493 12.3773C10.5111 12.7591 11.1744 13.4053 11.5775 14.2111M11.5775 17.7898L20.4201 22.2111M11.5775 14.2111L20.4201 9.78981M20.4201 22.2111C19.9456 23.1603 19.8675 24.259 20.2031 25.2657C20.5386 26.2724 21.2603 27.1046 22.2095 27.5791C23.1586 28.0537 24.2574 28.1318 25.264 27.7962C26.2707 27.4607 27.1029 26.7389 27.5775 25.7898C28.052 24.8407 28.1301 23.7419 27.7945 22.7352C27.459 21.7285 26.7373 20.8964 25.7881 20.4218C25.3182 20.1868 24.8065 20.0467 24.2824 20.0095C23.7583 19.9722 23.232 20.0386 22.7336 20.2047C21.7269 20.5403 20.8947 21.262 20.4201 22.2111ZM20.4201 9.78981C20.6551 10.2597 20.9803 10.6787 21.3772 11.0228C21.7741 11.367 22.235 11.6297 22.7334 11.7958C23.2318 11.9618 23.758 12.0281 24.282 11.9909C24.806 11.9536 25.3176 11.8135 25.7875 11.5785C26.2573 11.3435 26.6763 11.0183 27.0205 10.6214C27.3647 10.2245 27.6273 9.76366 27.7934 9.26526C27.9595 8.76685 28.0258 8.24062 27.9885 7.71659C27.9512 7.19257 27.8111 6.68101 27.5761 6.21114C27.1016 5.2622 26.2695 4.54064 25.2629 4.2052C24.2563 3.86976 23.1577 3.94792 22.2088 4.42248C21.2599 4.89704 20.5383 5.72913 20.2029 6.7357C19.8674 7.74227 19.9456 8.84087 20.4201 9.78981Z" stroke="#18181B" stroke-width="1.5" stroke-linecap="round" stroke-linejoin="round"/>
</svg>
