<svg width="33" height="33" viewBox="0 0 33 33" fill="none" xmlns="http://www.w3.org/2000/svg">
<path d="M19.4168 19.4168C20.1904 18.6432 20.625 17.594 20.625 16.5C20.625 15.406 20.1904 14.3568 19.4168 13.5832C18.6432 12.8096 17.594 12.375 16.5 12.375C15.406 12.375 14.3568 12.8096 13.5832 13.5832C12.8096 14.3568 12.375 15.406 12.375 16.5C12.375 17.594 12.8096 18.6432 13.5832 19.4168C14.3568 20.1904 15.406 20.625 16.5 20.625C17.594 20.625 18.6432 20.1904 19.4168 19.4168Z" stroke="#18181B" stroke-width="1.5" stroke-linecap="round" stroke-linejoin="round"/>
<path d="M3.37891 16.5C5.13066 10.9216 10.3433 6.875 16.4992 6.875C22.6564 6.875 27.8677 10.9216 29.6194 16.5C27.8677 22.0784 22.6564 26.125 16.4992 26.125C10.3433 26.125 5.13066 22.0784 3.37891 16.5Z" stroke="#18181B" stroke-width="1.5" stroke-linecap="round" stroke-linejoin="round"/>
</svg>
